<svg id="Layer_1" data-name="Layer 1" xmlns="http://www.w3.org/2000/svg" viewBox="0 0 300 300"><defs><style>.cls-1{fill:#ef9e00;}.cls-2{fill:#004e95;}</style></defs><path class="cls-1" d="M292.05,171.36H214.11V283.58H86V171.44H8v-155h284.1ZM225.65,121v28.63H214.22v11.68h39.35V26.38H46.34V161.32H85.92V149.51H74.38V121Zm-72.4,9.89H96V273.69h57.22Zm30.81,0V273.68h19.83V130.9ZM17.82,26.31V161.38H36.16V26.31ZM282.1,161.39V26.3H263.91V161.39ZM174,273.7V131H163.36V273.7ZM84.05,139.5l.9.59c.34-.6.93-1.18,1-1.8a42.73,42.73,0,0,0,0-5.77c0-.58-.65-1.13-1-1.69-.29.54-.81,1.06-.83,1.61C84,134.79,84.05,137.15,84.05,139.5Zm131.22.56.68-.39c0-2.52,0-5,0-7.57,0-.43-.58-.84-.89-1.27-.32.41-.9.81-.92,1.24a62.41,62.41,0,0,0,0,6.56C214.13,139.13,214.86,139.58,215.27,140.06Z"/><path class="cls-2" d="M236,35.8V95.23H64V35.8Zm-9.87,9.77H73.91V85.38H226.15Z"/></svg>