<svg id="Layer_1" data-name="Layer 1" xmlns="http://www.w3.org/2000/svg" viewBox="0 0 300 300"><defs><style>.cls-1{fill:#ef9e00;}.cls-2{fill:#004e95;}</style></defs><g id="Q3extD"><path class="cls-1" d="M34.62,232.13V145.67c-.89,0-1.75-.14-2.6-.14-5.55,0-11.09,0-16.64,0-7.14,0-10.52-3.39-10.53-10.44,0-3.67.11-7.35,0-11a6.29,6.29,0,0,1,2.87-5.78Q39.25,95,70.73,71.52L138.66,21.1c4.34-3.23,5.05-3.23,9.41,0q65.18,48.39,130.38,96.74c2.49,1.85,3.66,3.87,3.47,7-.22,3.57,0,7.17-.05,10.76,0,6.31-3.46,9.83-9.82,9.93-5.71.08-11.42,0-17.13,0h-2.78v86.65c.69.05,1.32.1,2,.13a4.3,4.3,0,0,1,4.4,3.47c1.13,4.17,2.41,8.29,3.49,12.47.41,1.59,1,2.3,2.81,2.19,2.68-.17,5.38-.08,8.07,0,5.16.09,8.8,3.58,9,8.71.11,3.25.1,6.52,0,9.78a8.68,8.68,0,0,1-8.46,8.7c-.82.06-1.63.05-2.45.05q-127.45,0-254.92,0a15.94,15.94,0,0,1-5.75-.74,8.2,8.2,0,0,1-5.39-8c0-3.18-.07-6.37,0-9.55a8.72,8.72,0,0,1,9-8.92,54.09,54.09,0,0,1,7.09,0c2.59.29,3.55-.76,4.05-3.17.65-3.18,1.71-6.28,2.61-9.41C29.07,232.82,29.32,232.61,34.62,232.13Zm228.07-114,.18-.47c-3.71-2.76-7.48-5.46-11.12-8.31-2-1.59-4-3-6.81-2.56a1.89,1.89,0,0,1-2.33-2.34c.27-1.43-.33-2-1.29-2.77Q193.14,65.95,145,30.11c-1.32-1-2.11-.87-3.35.07-9.71,7.28-19.49,14.49-29.24,21.72q-33.55,24.92-67.1,49.85a3.68,3.68,0,0,0-1.54,2.33c0,2.11-1,2.69-2.84,2.8a6.66,6.66,0,0,0-3.25.62c-4.59,3.24-9.06,6.66-13.56,10-.12.1-.09.41-.13.64ZM110.36,250.38c1.42-5,2.8-9.75,4.12-14.53a4.35,4.35,0,0,1,4.37-3.55c.63,0,1.25-.11,2-.18V145.68H79.52V232c5.6.93,5.59.93,7.13,6.42,1,3.44,1.89,6.91,3,10.32.21.65,1.08,1.55,1.66,1.56C97.55,250.42,103.82,250.38,110.36,250.38Zm55.54-104.7v86.63c4.79-.77,6.17,2.15,7,6,.93,4,2.23,8,3.39,12h20.24c.21-.61.44-1.21.62-1.83q1.71-6,3.41-12c.94-3.28,1.85-4,5.35-4.2.38,0,.77-.11,1.21-.17V145.68Zm106.77,113.9H13.87a6.77,6.77,0,0,0-.17,1.06c0,1.63,0,3.26.09,4.89.09,3.27.1,3.27,3.41,3.27l252.7-.23h2.77ZM14.11,136.36H272.65v-9H14.11Zm142.47,95.8c0-3.46.06-6.63-.05-9.8a3.25,3.25,0,0,0-1.11-1.82c-1.27-1.26-1.61-2.74,0-3.69,1.31-.79,1.21-1.73,1.21-2.84q0-33,0-66c0-.77-.07-1.54-.11-2.28H130.35a4.51,4.51,0,0,0-.19.85q0,34.11,0,68.24a3.06,3.06,0,0,0,1.07,1.86c1.38,1.28,1.42,2.68,0,3.91-.44.38-1.06.89-1.07,1.35-.09,3.39-.05,6.79-.05,10.26Zm-86.23,0c0-3.25.09-6.18-.06-9.11a4.48,4.48,0,0,0-1.23-2.51c-1.11-1.23-1.6-2.67-.14-3.53s1.43-2.14,1.43-3.48V145.74H44.07a5.63,5.63,0,0,0-.18.91q0,34,0,68a3.06,3.06,0,0,0,1,1.94c1.52,1.46,1.52,2.56-.11,4-.38.34-.87.83-.88,1.27-.07,3.38,0,6.78,0,10.24Zm146.27-86.46a5.54,5.54,0,0,0-.23,1.06q0,34,0,68a2.68,2.68,0,0,0,.87,1.75c1.87,1.65,1.88,2.51-.11,4.23-.33.29-.75.73-.75,1.1-.06,3.4,0,6.8,0,10.25h26.47c0-3.46.06-6.71,0-10,0-.56-.66-1.15-1.12-1.61-1.26-1.27-1.33-2.41-.08-3.81a4.72,4.72,0,0,0,1.21-2.79q.09-32.91,0-65.82c0-.78-.08-1.57-.13-2.41ZM80.5,250.24c-.78-2.83-1.45-5.48-2.3-8.08-.14-.44-1.11-.86-1.7-.86q-19.41-.08-38.83,0a2.32,2.32,0,0,0-1.81,1.06c-.85,2.52-1.48,5.11-2.24,7.87Zm86.31,0c-.68-2.5-1.4-4.83-1.94-7.19-.34-1.46-1.08-1.86-2.54-1.85-11.08.06-22.16,0-33.25,0h-6.66c-.87,3.08-1.68,6-2.53,9Zm86.3,0c-.78-2.84-1.43-5.43-2.26-8a2,2,0,0,0-1.6-1q-19.67-.09-39.32,0c-.48,0-1.27.32-1.37.66-.84,2.69-1.54,5.41-2.34,8.32Z"/><path class="cls-2" d="M60.57,102.29a14.79,14.79,0,0,1,4.11.09,4.11,4.11,0,0,1,2.61,2.2c.36,1.51-1,2.25-2.46,2.26-2.93,0-5.85,0-8.78,0-1.5,0-2.81-.76-2.45-2.27a4.06,4.06,0,0,1,2.61-2.19A16.66,16.66,0,0,1,60.57,102.29Z"/><path class="cls-2" d="M131.45,102.29a17,17,0,0,1,4.35.1c.95.26,1.64,1.42,2.45,2.18-.78.75-1.51,2.09-2.35,2.16a53.68,53.68,0,0,1-9.23,0c-.83-.07-1.55-1.42-2.33-2.19.83-.75,1.55-1.9,2.51-2.14A19,19,0,0,1,131.45,102.29Z"/><path class="cls-2" d="M155,106.82a23,23,0,0,1-4.84-.1c-.84-.19-2-1.38-2-2.08a3,3,0,0,1,2-2.21,61.85,61.85,0,0,1,9.72,0,3,3,0,0,1,1.91,2.27c0,.7-1.26,1.82-2.12,2a20.81,20.81,0,0,1-4.61.09Z"/><path class="cls-2" d="M225.74,106.83a20.73,20.73,0,0,1-4.6-.1c-.88-.19-1.55-1.29-2.31-2,.75-.81,1.45-2.24,2.28-2.32a51.74,51.74,0,0,1,9.23,0c.87.08,1.62,1.43,2.42,2.2-.8.75-1.49,1.91-2.41,2.14a19.64,19.64,0,0,1-4.61.1Z"/><path class="cls-2" d="M107.65,102.29c1.46,0,2.92,0,4.38,0s2.73.82,2.44,2.33a3.32,3.32,0,0,1-2.27,2.12,52.8,52.8,0,0,1-9,0c-.87-.08-1.64-1.34-2.45-2,.84-.8,1.55-2,2.54-2.31C104.65,102,106.19,102.29,107.65,102.29Z"/><path class="cls-2" d="M178.44,106.84a18,18,0,0,1-4.35-.09c-.93-.24-1.63-1.35-2.43-2.08.76-.79,1.46-2.19,2.28-2.26a52.58,52.58,0,0,1,9.22,0c.83.08,1.54,1.47,2.31,2.25-.81.73-1.51,1.86-2.43,2.09A20.14,20.14,0,0,1,178.44,106.84Z"/><path class="cls-2" d="M84.05,106.83a21.36,21.36,0,0,1-4.6-.09c-.86-.19-2.22-1.42-2.12-1.95.18-.92,1.25-2.3,2-2.37a54.34,54.34,0,0,1,9.46,0c.79.07,1.45,1.55,2.17,2.39-.78.67-1.47,1.73-2.35,1.93A22,22,0,0,1,84.05,106.83Z"/><path class="cls-2" d="M202.33,102.3a16.57,16.57,0,0,1,4.35.1c.93.25,1.6,1.43,2.38,2.19-.77.75-1.5,2.07-2.33,2.14a56.77,56.77,0,0,1-9.22,0c-.8-.06-2.23-1.45-2.12-2a3.57,3.57,0,0,1,2.11-2.36,19.91,19.91,0,0,1,4.83-.11Z"/><path class="cls-1" d="M143.46,216.32a9.06,9.06,0,0,1,3.13.08c.88.34,2.18,1.43,2.1,2a3.3,3.3,0,0,1-2.05,2.31,21.92,21.92,0,0,1-6.52,0,3.29,3.29,0,0,1-2.09-2.28c-.1-.59,1.18-1.74,2.06-2.05A10.2,10.2,0,0,1,143.46,216.32Z"/><path class="cls-1" d="M57.21,216.36a10.56,10.56,0,0,1,3.38.08c.81.29,1.94,1.4,1.87,2a3,3,0,0,1-1.91,2.23,29.52,29.52,0,0,1-7,0c-.73-.09-1.93-1.39-1.86-2a3.39,3.39,0,0,1,1.93-2.26c1.08-.39,2.4-.1,3.62-.1Z"/><path class="cls-1" d="M229.89,216.33c1.05,0,2.23-.29,3.13.09s2,1.41,2,2.17a3,3,0,0,1-2,2.13,26.16,26.16,0,0,1-6.79,0,3,3,0,0,1-2-2.14c0-.75,1.13-1.87,2-2.17C227.35,216,228.67,216.33,229.89,216.33Z"/></g></svg>