<svg id="Layer_1" data-name="Layer 1" xmlns="http://www.w3.org/2000/svg" viewBox="0 0 300 300"><defs><style>.cls-1{fill:#fff;}</style></defs><polygon class="cls-1" points="277.1 145.59 154.39 145.59 154.39 22.98 145.53 22.98 145.53 145.69 22.93 145.69 22.93 154.55 145.64 154.55 145.64 277.17 154.41 277.17 154.41 154.45 277.1 154.45 277.1 145.59"/><path class="cls-1" d="M32.12,118.77A55.68,55.68,0,0,0,70.8,134.08c.9,0,1.81,0,2.72-.06,30.87-1.42,54.72-26.23,54.29-56.5-.22-16.25-6.45-31-17.53-41.42a57.88,57.88,0,0,0-42.1-15.44C38,22,13.38,48.32,14.51,78.21A56.74,56.74,0,0,0,32.12,118.77Zm39-89.39h.11a48.24,48.24,0,0,1,48,48.16,47.39,47.39,0,0,1-14.2,33.75,47.61,47.61,0,0,1-33.82,14.26h-.13a47.64,47.64,0,0,1-34-14.2A48.42,48.42,0,0,1,23.16,77C23.17,50.81,44.7,29.44,71.15,29.38Z"/><path class="cls-1" d="M228.66,134.05l1.6,0c31-.82,55.26-25.46,55.22-56.12,0-15.85-6-30.42-16.75-41a58.16,58.16,0,0,0-41.45-16.3c-30.17.5-55.46,26.24-55.23,56.2.12,16.15,6.3,31,17.38,41.67A56,56,0,0,0,228.66,134.05ZM180.82,77a46.91,46.91,0,0,1,13.87-33.35,47.67,47.67,0,0,1,34-14.23h.35a48.06,48.06,0,0,1,47.78,48.42c-.21,26.7-21.45,47.64-48.34,47.67h-.05a47.07,47.07,0,0,1-33.62-14,48.07,48.07,0,0,1-14-34.46Z"/><path class="cls-1" d="M269.2,182.77A56.07,56.07,0,0,0,229,166h-.14a56.61,56.61,0,0,0-40,16.23,55.63,55.63,0,0,0-16.83,37.88,57.34,57.34,0,0,0,15.85,42.19,56,56,0,0,0,40.58,17.09h.09c31.56,0,56.56-24.54,56.94-55.91A56.48,56.48,0,0,0,269.2,182.77Zm-6.65,74.12a47.56,47.56,0,0,1-33.66,14h-.26a48.23,48.23,0,0,1-47.81-48.43h0a48,48,0,0,1,47.69-47.7H229a48.33,48.33,0,0,1,47.89,48.33A47.71,47.71,0,0,1,262.55,256.89Z"/><path class="cls-1" d="M110,181.16a56.07,56.07,0,0,0-41.71-14.95c-34.85,1.84-55,31.21-53.78,57.38a56.91,56.91,0,0,0,17.26,40.2A55.58,55.58,0,0,0,70.7,279.41l1.55,0c35.29-.93,56-29.47,55.57-56.53C127.57,206.48,121.24,191.67,110,181.16Zm-4.69,75.27a47.88,47.88,0,0,1-34.1,14.43h0a47.52,47.52,0,0,1-34-14.11,48.48,48.48,0,0,1-14-34.32,47.09,47.09,0,0,1,14-33.63,47.72,47.72,0,0,1,33.92-14.08h.21a48.48,48.48,0,0,1,48,48.09A47.07,47.07,0,0,1,105.31,256.43Z"/><rect class="cls-1" x="39.16" y="73.23" width="64.13" height="8.29"/><path class="cls-1" d="M71.06,90.22a11.12,11.12,0,0,0-10.9,11.21,11.05,11.05,0,0,0,11,10.78h0a11,11,0,0,0,7.68-18.83A10.8,10.8,0,0,0,71.06,90.22Zm.13,13.4h0a2.42,2.42,0,0,1-1.67-.81,2.38,2.38,0,0,1-.69-1.68,2.35,2.35,0,0,1,2.4-2.2h0a2.33,2.33,0,0,1,1.71.74,2.28,2.28,0,0,1,.6,1.69A2.44,2.44,0,0,1,71.19,103.62Z"/><path class="cls-1" d="M71.1,64.55h.28a11,11,0,0,0-.17-22h-.06a11,11,0,0,0-7.82,3.33,10.82,10.82,0,0,0-3.16,7.79,11.17,11.17,0,0,0,3.44,7.84A10.81,10.81,0,0,0,71.1,64.55Zm.07-13.36h0a2.4,2.4,0,0,1,2.39,2.24,2.29,2.29,0,0,1-.64,1.67,2.38,2.38,0,0,1-1.73.71h0a2.48,2.48,0,0,1-1.77-.75,2.19,2.19,0,0,1-.64-1.59A2.44,2.44,0,0,1,71.17,51.19Z"/><polygon class="cls-1" points="224.51 109.42 233.25 109.42 233.25 81.55 260.88 81.55 260.88 73.07 233.17 73.07 233.17 45.35 224.39 45.35 224.39 73.16 196.78 73.16 196.78 81.71 224.51 81.71 224.51 109.42"/><polygon class="cls-1" points="254.18 203.4 248.32 196.81 228.5 216.66 209.21 197.25 202.89 203.38 222.72 223.05 203.21 242.47 209.54 248.94 229.31 228.99 248.78 248.53 254.72 242.18 235.01 222.51 254.18 203.4"/><rect class="cls-1" x="39.17" y="208.72" width="64.08" height="8.4"/><path class="cls-1" d="M39.18,229q0,.36-.06.69c0,.52-.09,1-.09,1.55s0,1.1.1,1.68l.18,2.52h63.9v-8.29H39.31Z"/></svg>