<svg id="Layer_1" data-name="Layer 1" xmlns="http://www.w3.org/2000/svg" viewBox="0 0 300 300"><defs><style>.cls-1{fill:#ef9e00;}.cls-2{fill:#004e95;}</style></defs><g id="uSmpr0"><path class="cls-1" d="M150,68.1H278.66c5.78,0,8.14,2.37,8.14,8.21q0,73.66,0,147.33c0,5.84-2.36,8.21-8.14,8.21q-104.91,0-209.83.05a9.77,9.77,0,0,1-7.46-3.09Q38.8,206.08,16.06,183.52a9,9,0,0,1-2.87-6.83q.08-50.19,0-100.38c0-5.83,2.37-8.21,8.14-8.21ZM44.43,98v76.57H63.85c4.66,0,6.08,1.4,6.09,6q0,9.39,0,18.77v2.54h185.7V98ZM22,76.69v97.72H35.8V95.73c0-5.15,1.21-6.36,6.38-6.36H257.83c5.17,0,6.4,1.23,6.4,6.34V204.3c0,.72,0,1.45,0,2.16-.2,2-1.2,3.48-3.32,3.85a19.55,19.55,0,0,1-3.34.26H70.12v12.71H278V76.69ZM61.23,216V183.34H28.53Z"/><path class="cls-2" d="M160,126.62a52.91,52.91,0,0,0,2.07,4.91,2.54,2.54,0,0,0,1.81,1c2.08.12,4.18,0,6.26.06,2.36.06,3.9,1.48,4,3.59a3.77,3.77,0,0,1-3.82,4.07c-2.63.12-5.28,0-7.92,0-3.38,10.08-10.49,14.27-21.37,13.5.95,1,1.5,1.62,2.08,2.2q8.8,8.89,17.63,17.78c2.2,2.22,2.43,4.32.71,6.07s-4,1.6-6.12-.55q-13-12.91-25.91-25.86c-1.42-1.42-2.26-3-1.47-5s2.5-2.47,4.53-2.43q6,.1,12.05,0c4.05-.07,7.2-1.72,9.46-5.9h-2.91c-6.82,0-13.65,0-20.48,0-3,0-4.73-1.49-4.66-3.94s1.68-3.63,4.65-3.62H154c-1.75-3.51-4.24-5.53-7.75-5.7-5.44-.26-10.91-.13-16.37-.24a3.82,3.82,0,0,1-.34-7.64,17.37,17.37,0,0,1,2.17-.06h36.86a12.8,12.8,0,0,1,2.15.11,3.78,3.78,0,0,1,3.39,4,3.71,3.71,0,0,1-3.76,3.6C167,126.69,163.64,126.62,160,126.62Z"/></g></svg>