<svg id="Layer_1" data-name="Layer 1" xmlns="http://www.w3.org/2000/svg" width="24" height="24" viewBox="0 0 24 24"><defs><style>.cls-1{fill:#fff;fill-rule:evenodd;}</style></defs><title>FedeLogo1</title><g id="Page-1"><g id="Group-3"><g id="Group"><path id="Path-2" class="cls-1" d="M18.266,19.5243A7.0026,7.0026,0,0,1,12.7452,22.5c-3.1134,0-5.4816-1.9159-8.2994-6.2742S.0532,5.1366,6.2654,2.6092s16.061-.5227,15.7591,3.86-4.3946,9.0161-8.3937,9.0161c-2.4928-.14-2.8829-1.3938-3.1342-2.6468q3.0442-.0627,6.6586,0,1.0393-.1685,1.0393-1.5876c0-1.419-1.3852-5.9508-6.1945-5.3663s-5.01,5.5634-5.01,6.6141a5.9709,5.9709,0,0,0,6.281,5.7578,8.2924,8.2924,0,0,0,3.332-.6975q1.1514-.3813,1.5911.341A1.72,1.72,0,0,1,18.266,19.5243Z"/><path id="Path-3" class="cls-1" d="M10.5937,11.0625q.2765-2.625,2.3941-2.625a2,2,0,0,1,1.9184,1.7663c0,.5933-.4457.8587-.99.8587Z"/></g></g></g></svg>