<svg id="Layer_1" data-name="Layer 1" xmlns="http://www.w3.org/2000/svg" viewBox="0 0 300 300"><defs><style>.cls-1{fill:#ebaa35;}.cls-2{fill:#114589;}</style></defs><path class="cls-1" d="M248.76,188.06c-2.35,56.13-45.3,94.12-91.69,98.35-29.22,2.66-55.15-5.56-77.16-25s-33.22-44.22-34.74-73.67a28.67,28.67,0,0,1-23.11-12c-4.14-5.52-5.53-11.8-5.32-18.65.4-12.52,11.45-26.38,28.49-26.85,0-1,0-2.05,0-3.09.13-10.77-.16-21.57.47-32.31C47,73.11,55,53.87,68.79,37.11c15-18.34,34.12-30.63,57.45-34.95,41.69-7.71,76.23,5.21,102.44,38.69,14.07,18,20.23,39,20.36,61.79.05,8.15,0,16.3,0,24.45v3.21a28.46,28.46,0,0,1,28.54,28.8,27.21,27.21,0,0,1-8.47,20.2C264,184.25,262,185.09,248.76,188.06ZM56.43,143.53h-.15c0,13.31-.29,26.63.11,39.93a120,120,0,0,0,2.53,23.12c5.2,22.66,17.7,40.66,36.81,53.8,18.37,12.62,38.83,17.63,61,15.22a88.3,88.3,0,0,0,55-26.64c18-18.38,26.12-40.89,26.26-66.4.14-26.35.07-52.7,0-79a101.78,101.78,0,0,0-.86-14.08c-3.27-22.55-13.28-41.6-30.61-56.45-33.9-29-82.57-29.75-116.89-1.5-20.88,17.17-32,39.61-33.07,66.69C56,113.27,56.43,128.41,56.43,143.53Zm-11.52-2.16a16.84,16.84,0,0,0-14.59,8c-4,6.22-4.18,12.83-.2,19.16a16.66,16.66,0,0,0,14.79,8.13Zm204.3,0v35.11c9.38.5,17.47-7.36,17.79-17.13C267.32,149.84,259.05,141.38,249.21,141.41Z"/><path class="cls-2" d="M147.17,55c5.71-5,12.17-7.54,19.52-7.29,9.75.33,19.4,9.24,21.66,19.9,2.17,10.26-1.27,18.76-8.65,25.76-7.09,6.73-14.31,13.31-21.59,19.83a16.32,16.32,0,0,1-22-.09c-8-7-16-13.93-23.5-21.35-15.42-15.18-5.57-38,9.77-43.11,7.71-2.59,15-.38,21.65,4C145.05,53.25,146,54.08,147.17,55Zm-31.56,18A15.72,15.72,0,0,0,121.32,85q10.71,9.6,21.49,19.08c2.95,2.6,5.75,2.59,8.68,0,7.07-6.33,14.15-12.65,21.16-19,7.53-6.86,7.1-17.41-.84-23.84a10,10,0,0,0-8-2.43c-5,.72-9.29,2.58-12,7.28s-7.23,4.6-10.17.24c-.35-.52-.68-1.07-1.05-1.57-3.33-4.48-10.75-7.19-15.44-5.66C119.78,60.78,115.61,66.87,115.61,72.92Z"/><path class="cls-1" d="M146.64,242a22.15,22.15,0,0,1-22-21.57c-.09-3.29,1.88-5.81,4.83-6.18s5.41,1.66,6,5c.18,1,.18,2,.38,3A11.29,11.29,0,0,0,147.25,231,11.44,11.44,0,0,0,158,221c.06-.53,0-1.08.11-1.62A5.65,5.65,0,0,1,164,214.2c2.95.22,4.89,2.44,5,5.71C169.32,231.77,158.91,242.05,146.64,242Z"/><path class="cls-1" d="M109.21,168.6a22.08,22.08,0,0,1-21.88-20.3c-.31-4.34,1.53-7.06,5-7.34,3.22-.27,5.51,2.16,6,6.33a10.91,10.91,0,0,0,8.55,10A11.24,11.24,0,0,0,120.55,148c.06-.45,0-.91.1-1.36.39-3.49,2.75-5.82,5.74-5.68,3.17.15,5.3,2.77,5.2,6.4A22.2,22.2,0,0,1,109.21,168.6Z"/><path class="cls-1" d="M184.46,168.6c-11.87,0-21.92-9.64-22.14-21.22-.06-3.64,2-6.24,5.16-6.44,3-.18,5.36,2.17,5.74,5.65.72,6.57,5.25,11.07,11.18,11.11s10.58-4.41,11.4-10.92c.48-3.77,2.76-6.06,5.81-5.83,3.31.25,5.42,3.15,5.11,7.05A22.34,22.34,0,0,1,184.46,168.6Z"/><path class="cls-1" d="M141.06,180c0-6.33,0-12.67,0-19,0-3.72,2.18-6.16,5.36-6.17s5.55,2.43,5.56,6q0,19.4,0,38.79a5.63,5.63,0,0,1-4.47,5.7,5.25,5.25,0,0,1-5.81-3,8.66,8.66,0,0,1-.62-3.4C141,192.7,141.05,186.37,141.06,180Z"/></svg>