<svg id="Layer_1" data-name="Layer 1" xmlns="http://www.w3.org/2000/svg" viewBox="0 0 300 300"><defs><style>.cls-1{fill:#fff;}</style></defs><path class="cls-1" d="M112.5,221.86l3.39,22.79c.6,4.11,1.26,8.22,1.79,12.34.47,3.7-1,5.92-4,6.33s-5.1-1.16-5.67-4.87q-3.51-22.8-6.89-45.62c-2.87-19.16-5.73-38.32-8.62-57.62H15.94c.84,5.71,1.66,11.41,2.52,17.11q4.14,27.48,8.29,54.94c1.43,9.45,2.82,18.9,4.29,28.34.74,4.76-.49,7.28-3.95,7.72s-5.11-1.47-5.82-6.2Q15.11,215.93,8.9,174.75q-1.73-11.46-3.43-22.93c-.6-4.06,1.51-6.42,5.77-6.43H91.12c-.6-4-1.12-7.7-1.75-11.43-1-6.06.61-8,6.7-8,36.11,0,72.22.06,108.33-.06,6.16,0,7.2,3.25,6.48,7.64-.63,3.84-1.24,7.68-1.92,11.89h78.45c6.35,0,7.9,1.68,7,7.93q-7.77,52.29-15.71,104.56a7.59,7.59,0,0,1-2.6,4.76,4.64,4.64,0,0,1-7.17-4.34c.47-5.37,1.41-10.7,2.21-16q4.13-27.73,8.31-55.45c1.58-10.5,3.2-21,4.82-31.64H207.61q-1.81,12.11-3.62,24.14c-3.89,26-7.74,52-11.73,77.94a8.84,8.84,0,0,1-2.63,5.28c-1,.84-3.49.52-5.06,0-2-.7-2.48-2.79-2.21-4.82.58-4.45,1.25-8.88,1.91-13.32,1.09-7.39,2.19-14.77,3.35-22.51h-2.83c-8.57,0-17.14,0-25.71,0-4.28,0-6.75-3.46-4.86-7a5.65,5.65,0,0,1,3.58-2.52,56.72,56.72,0,0,1,8.46-.25c6.9,0,13.81,0,20.71,0,1.45,0,2.25-.27,2.49-1.94q5.44-36.62,11-73.21a5.89,5.89,0,0,0,0-1H155v36.21c0,2.43-.35,4.68-3,5.74a4.67,4.67,0,0,1-6.6-3.57,16.36,16.36,0,0,1-.21-3q0-16.35,0-32.69v-2.8H99.59c.57,4,1.08,7.87,1.66,11.7,3.11,20.62,6.27,41.24,9.3,61.88.32,2.14,1.08,2.68,3.15,2.66,9.07-.11,18.14-.06,27.21,0,2.19,0,4.34.14,5.5,2.54,1.71,3.54-.33,7-4.4,7.16-4.91.13-9.82,0-14.73,0Z"/><path class="cls-1" d="M179.14,74.2c-.41,5.46-.32,11-1.34,16.35-2.16,11.33-10.88,18.74-23.56,20.81-12.1,2-25.24-4.4-29.95-15.06a32.53,32.53,0,0,1-2.68-11.78,186.29,186.29,0,0,1,.46-25.12C123.38,46.65,134,38,147.14,36.74c10.55-1,19.72,2.06,26.4,10.85,4.14,5.44,5.07,11.79,5.23,18.36.07,2.74,0,5.48,0,8.22Zm-47.75-.28-.48,0c.3,4.8,0,9.73,1,14.38,1.77,8.19,8.28,12.93,17.27,13.57,10.09.71,18.67-6.23,19.39-16.27.5-7.12.43-14.29.25-21.43C168.58,53.45,161.68,48,154,46.53,144.83,44.8,132.27,49.8,131.43,63,131.2,66.6,131.39,70.27,131.39,73.92Z"/><path class="cls-1" d="M217,102c.25-4.56,0-9.22.84-13.65,2.93-14.9,16.61-20.25,27.92-18.54,10.49,1.59,17.89,7.18,20.76,17.84a11.76,11.76,0,0,1,.5,2.93c.05,7.56.57,15.16-.05,22.66-1,11.92-9.78,20.12-21.74,21.26-11.29,1.07-21.27-4.06-25.6-13.14a27.6,27.6,0,0,1-2.41-12.11V102Zm40.34.07h0c0-3.07.13-6.15,0-9.22-.39-7.79-6.24-13.32-14.37-13.73-7.84-.39-14.85,4.61-15.5,12.1a125.78,125.78,0,0,0,0,21.87c.65,7.32,7.63,12.23,15.42,11.87,8-.38,14-5.87,14.41-13.42C257.47,108.4,257.33,105.24,257.33,102.08Z"/><path class="cls-1" d="M83.14,101.77c-.24,4.39,0,8.88-.81,13.16-2.39,12.4-13.41,20.67-26,20A24.82,24.82,0,0,1,33,112a130.86,130.86,0,0,1,0-20.67C34,79.53,41.31,72.08,53.17,69.88,66,67.51,78.34,74.74,81.9,86.9a38.48,38.48,0,0,1,1,8.13c.15,2.23,0,4.48,0,6.73Zm-40.35.31h0c0,3-.1,6,0,9,.33,7.71,5.91,13.27,13.73,13.79,8.24.55,15.42-4.28,16.14-11.93a116.74,116.74,0,0,0,0-21.88C71.92,83.5,64.9,78.65,57,79.14s-13.81,6.1-14.19,13.71C42.66,95.92,42.79,99,42.79,102.08Z"/></svg>