<svg id="Layer_1" data-name="Layer 1" xmlns="http://www.w3.org/2000/svg" viewBox="0 0 300 300"><defs><style>.cls-1{fill:#fff;}</style></defs><g id="MT1KmI"><path class="cls-1" d="M97.17,231.42H85.34a57.89,57.89,0,0,1,38.42-54.34c-2.29-2.62-4.63-5-6.6-7.62a36.86,36.86,0,0,1-7.56-22c0-3.53-1.9-5.83-4-8.08-8.51-9.29-19-14.55-31.71-14.78-7.88-.14-15.87-.43-23.64.59C29.57,127.88,13.56,146,12.63,167c0,.58-.1,1.17-.17,2H0c1.54-26.21,14.47-44.1,38.68-54-21-19.52-16.34-46.73-2.45-60.38a40.72,40.72,0,0,1,57.21,0c14.64,14.39,17.88,41.36-2.57,60.49a51.21,51.21,0,0,1,21.76,13.72C120.91,114,133,105.18,150,105.27c16.85.09,29,8.62,37.22,23.4,6-6.52,13.33-10.83,22-13.71C198.05,104.69,192.93,92.39,195,77.53a39.48,39.48,0,0,1,14.73-25.85c15.92-13,39.3-11.43,54,2.9,13.47,13.14,18.75,41-2.37,60.32,23.86,10.16,37,27.89,38.63,54.14H287.71c-1.22-5.36-1.89-10.67-3.66-15.58A44.14,44.14,0,0,0,243,124.55c-8.45,0-17.05-.19-25.34,1.17-11.13,1.82-19.82,8.34-26.38,17.54a3.94,3.94,0,0,0-.66,2.08c-.17,12.55-5.06,22.94-14.54,31.47,24,10.28,37,28.26,38.82,54.53H202.26c-.6-3.58-1-7.22-1.84-10.79-4.09-18.6-21.49-33.34-40.49-34-8.21-.27-16.55-.56-24.65.55-14.89,2-25.73,10.49-32.6,23.83A49.18,49.18,0,0,0,99,220.84C98.14,224.22,97.8,227.74,97.17,231.42ZM234.72,111.5c15.68,0,28.52-12.41,28.64-27.79A28.73,28.73,0,0,0,235,55c-15.29-.12-27.78,12.7-28.14,28.37C206.51,98.05,219.69,112,234.72,111.5Zm-170,0A28.13,28.13,0,0,0,93,83.46,28.43,28.43,0,0,0,64.72,55c-15.31-.11-28.24,13.09-28.13,28.7A28.24,28.24,0,0,0,64.69,111.5Zm113.52,34.25a28.24,28.24,0,0,0-56.47-.56C121.61,161,134.2,174,149.68,174A28.46,28.46,0,0,0,178.21,145.75Z"/></g></svg>