<svg id="Layer_1" data-name="Layer 1" xmlns="http://www.w3.org/2000/svg" viewBox="0 0 300 300"><defs><style>.cls-1{fill:#fff;}</style></defs><path class="cls-1" d="M231.79,122.91V239.66c1.32,0,2.46,0,3.6,0,2.84.14,4.4,1.69,4.44,4.56.06,4.36,0,8.73,0,13.43H265.2c6.16,0,7.11,1,7.11,7.23v10.3c1.58,0,2.95-.06,4.31,0,2.84.17,4.54,1.8,4.53,4.23s-1.87,4.12-4.78,4.18H14.44c-4.28,0-6.22-1.3-6.27-4.18s1.95-4.23,6.23-4.27H17V264.43c0-5.7,1.07-6.77,6.78-6.77H49.48V245.55c0-4.64,1.2-5.85,5.83-5.9.65,0,1.31,0,2.18,0V122.82c-1,0-2.08,0-3.11,0-3.25-.09-4.86-1.66-4.89-4.91,0-4.44,0-8.88,0-13.6H41.65c-5.12,0-6.39-1.3-6.4-6.5q0-5.09-.08-10.16c0-.14-.13-.28-.33-.69-3.9,0-7.92,0-12,0-4.38,0-5.82-1.43-5.84-5.77,0-5,.06-9.92,0-14.87a5.12,5.12,0,0,1,3.67-5.46q60.6-23.32,121.2-46.63a8.71,8.71,0,0,1,5.68,0q60.65,23.21,121.2,46.64a4.94,4.94,0,0,1,3.58,5c0,5.37.05,10.74,0,16.11-.05,3.2-1.77,4.85-5,4.9-4.28.07-8.57,0-13.24,0v8c0,9.18-.2,9.37-9.5,9.37h-4.73v11.74c0,5.67-1,6.67-6.53,6.78C232.91,122.83,232.5,122.87,231.79,122.91Zm31.94-44.7c0-2.67-.13-5.22,0-7.74.14-1.92-.64-2.68-2.36-3.34q-57.29-22-114.53-44a6.7,6.7,0,0,0-4.4,0C120.82,31.37,99.2,39.72,77.58,48q-24.93,9.6-49.84,19.24c-.8.31-2,1.08-2,1.7-.21,3-.09,6.06-.09,9.23ZM162.18,122.82V239.53c.6,0,1.07.1,1.55.11,5.68.15,6.6,1.09,6.6,6.72v11.18h18.15c.07-.75.17-1.39.17-2,0-3.55,0-7.1,0-10.66,0-3.81,1.38-5.14,5.26-5.2.88,0,1.76,0,2.7,0V122.92c-.65,0-1.13-.08-1.61-.09-5.38-.12-6.35-1.09-6.35-6.4V104.5H170.33c0,4.56,0,8.93,0,13.3-.05,3.39-1.7,4.94-5.08,5C164.26,122.84,163.29,122.82,162.18,122.82ZM100.66,104.4c0,4.74,0,9.18,0,13.63,0,3.14-1.62,4.68-4.74,4.78-1,0-2.09,0-3.2,0V239.55c.65,0,1.13.08,1.61.09,5.41.12,6.34,1.05,6.35,6.38v11.46H119c0-4.46,0-8.75,0-13,0-3.16,1.59-4.68,4.73-4.79,1.12,0,2.24,0,3.35,0V123c-8.1-.84-8.1-.84-8.1-9.05V104.4Zm35.27,135.1H153.4V123H135.93Zm-52.18,0V123H66.44V239.52ZM222.91,123H205.6V239.5h17.31Zm40.66,143.49H25.78V275H263.57ZM245.33,87.17H44.05v8.34H245.33ZM58.15,104.88v9.23H92v-9.23Zm139.14,9.22h33.92V105H197.29ZM58.05,257.48H92v-9.1H58.05Zm173.1.11v-9.22H197.4v9.22ZM127.76,114.09h33.8V105h-33.8Zm0,143.43h33.81V248.3H127.75Z"/><path class="cls-1" d="M144.32,71.88c-12.42-.28-21.74-10.19-21.45-22.8.26-11.46,10.59-21.1,22.23-20.75A21.86,21.86,0,0,1,166.47,51C166.15,62.54,156,72.14,144.32,71.88Zm.22-8.59c7.3,0,13.46-5.93,13.43-13a13.31,13.31,0,1,0-13.43,13Z"/></svg>