<svg id="Layer_1" data-name="Layer 1" xmlns="http://www.w3.org/2000/svg" viewBox="0 0 300 300"><defs><style>.cls-1{fill:#ebaa35;}.cls-2{fill:none;stroke:#114589;stroke-linecap:round;stroke-linejoin:round;stroke-width:5px;}</style></defs><path class="cls-1" d="M145.67,13.48c0-3.22,0-6.26,0-9.3,0-2.81,1.32-4.31,3.57-4.17,2.57.16,3.32,1.88,3.32,4.14v9.23c4.9.49,9.56.83,14.18,1.45A135,135,0,0,1,236.84,46c29.83,25.13,47.42,57.07,51.62,96.07.35,3.23.28,6.5.45,9.75.11,2-.27,3.64-2.37,4.38-1.92.68-3.24-.17-4.49-1.6a43.54,43.54,0,0,0-22.39-13.76c-11.45-2.94-21.78.15-31.2,6.75a49.33,49.33,0,0,0-7.24,6.47c-3.08,3.21-4.67,3.15-7.72-.05C203,143,190.44,137.37,175,140.86a42,42,0,0,0-20.48,11.58,7.34,7.34,0,0,0-1.9,4.72c-.1,35.89-.06,71.77-.09,107.66,0,7,1.29,13.49,5.81,19.07,5.75,7.09,13.56,9.4,22.21,9.18,16-.41,25.57-9.94,26.51-26.1.17-3,1.55-4.74,3.72-4.41,2.64.41,3.15,2.32,3.07,4.68-.48,14.1-8.69,26-21,30.46-14.15,5.08-29.85,1.6-39-9a33.38,33.38,0,0,1-8.13-22.45c0-35.6-.1-71.2.07-106.8,0-4.08-1.17-6.79-4.32-9.23-9-7-18.73-11.63-30.42-10.21a41.13,41.13,0,0,0-26.47,14.14c-2.68,3-4.61,3.1-7.29.08-16.7-18.78-42.63-19.21-59.91-1A19,19,0,0,0,16,154.78c-1.2,1.57-2.91,2.36-4.47,1.24a5.63,5.63,0,0,1-2.11-3.89,108.31,108.31,0,0,1,3.93-30.34C25.53,76.52,53.26,44.36,95.7,24.87a126.15,126.15,0,0,1,46.61-11.09C143.34,13.72,144.37,13.6,145.67,13.48Zm19.89,8.57c1,.91,1.75,1.55,2.42,2.29,6.28,7.05,13.27,13.61,18.68,21.28,17.84,25.25,27.14,53.92,31.92,84.21.78,4.94,1.39,9.91,2.11,15.08,19.88-15.77,39.81-15.91,60.05-1.3C276.38,79.75,220.6,27,165.56,22.05ZM77.6,145c.14-1,.25-1.64.32-2.28C80.56,119,85.86,96,95.56,74.12c8.58-19.33,19.71-36.91,35.93-50.87a12.6,12.6,0,0,0,1.3-1.78c-33.13,5.19-60,20.25-81.85,44.69-22.66,25.43-33.1,57.67-33.22,77.29C37.05,128.9,59.14,129.51,77.6,145Zm67.86-.34V21.3c-.66.43-1.05.67-1.43.94-18,12.58-30.29,29.78-39.69,49.24C95.46,89.85,90,109.31,86.65,129.4c-.8,4.81-1.38,9.66-2.13,15C104.3,129.24,125.33,128.94,145.46,144.63Zm68-.4c-.06-1-.05-1.68-.13-2.34-3-24.95-9-49-20.07-71.71-7.07-14.54-16.06-27.82-28-38.91-3.85-3.6-8.14-6.73-12.59-10.37V144.65C173.06,128.82,194.12,129.36,213.5,144.23Z"/><path class="cls-2" d="M150.17,15.31S88.77,40.13,81.06,156.49"/><path class="cls-2" d="M148.57,15.31S210,40.13,217.69,156.49"/></svg>