<svg id="Layer_1" data-name="Layer 1" xmlns="http://www.w3.org/2000/svg" viewBox="0 0 300 300"><defs><style>.cls-1{fill:#114589;}.cls-2{fill:#ebaa35;}</style></defs><path class="cls-1" d="M275.2,210.85c4.56,1.33,9.58,2.16,14,4.24,7.87,3.68,12.08,13.55,10.44,22.61-1.57,8.62-9.29,16.14-17.78,17.2a58.53,58.53,0,0,1-7.24.46q-125.32,0-250.65,0c-8.53,0-15.74-2.7-20.45-10.12-9.1-14.34.34-32.32,17.43-33.4,1.4-.09,2.81,0,4.59,0-3-7.74-1.86-15.55-1.88-23.24-.09-40.21,0-80.42-.07-120.63,0-7.47,2-13.93,8-18.75,4.27-3.44,9.27-4.66,14.69-4.65,16.67,0,33.34,0,50,0H253.62c11.49,0,19.47,5.75,22.07,16a29.93,29.93,0,0,1,.71,7.2q.06,66.53,0,133.05C276.37,204.47,275.55,208,275.2,210.85Zm-125-154.2H46.24c-7.06,0-10.4,3.28-10.45,10.31,0,6.46,0,12.93,0,19.39q0,57.12,0,114.23a15.54,15.54,0,0,0,1.08,6.46c1.87,3.93,5.53,4.81,9.66,4.81q103.17-.08,206.35,0c8.26,0,11.37-3.06,11.37-11.25V67.86c0-8.22-3-11.2-11.39-11.21ZM150,243.35H275.76c1.21,0,2.43,0,3.63-.07a9.52,9.52,0,0,0,8.3-7.62c.75-4.92-1.43-9.37-5.66-10.86a18,18,0,0,0-5.92-.9q-126.18-.06-252.36,0a23.12,23.12,0,0,0-3.63.18c-4.45.71-7.44,4.07-8.06,9a9.35,9.35,0,0,0,6,9.55,17.65,17.65,0,0,0,5.63.76Q86.87,243.38,150,243.35Z"/><path class="cls-2" d="M163.26,139.26l34-33.78c-3.55,0-6.93.07-10.3,0-3.66-.09-6-2.39-6.08-5.78a5.56,5.56,0,0,1,5.51-6q13.19-.19,26.36,0a5.25,5.25,0,0,1,5.41,5.45q.26,13.18,0,26.36a5.88,5.88,0,0,1-5.87,5.47,6,6,0,0,1-5.89-5.77c-.15-3.39,0-6.8,0-11-1.32,1.2-2.12,1.86-2.85,2.59q-17,17.05-34,34.11c-4.49,4.5-7.21,4.43-11.72,0-7.17-7.1-14.38-14.17-21.8-21.48-.56.49-1.32,1.1-2,1.79q-20.13,20.16-40.24,40.33c-.57.58-1.12,1.17-1.72,1.71a6,6,0,0,1-8.67-.18c-2.27-2.41-2.21-5.85.34-8.42q14.92-15.08,29.92-30.07,8.34-8.37,16.69-16.74c4.3-4.31,7.24-4.31,11.59,0q9.65,9.65,19.23,19.34C161.85,137.94,162.66,138.68,163.26,139.26Z"/></svg>