<svg id="Layer_1" data-name="Layer 1" xmlns="http://www.w3.org/2000/svg" viewBox="0 0 300 300"><defs><style>.cls-1{fill:#114589;}.cls-2{fill:#ebaa35;}</style></defs><path class="cls-1" d="M88.63,161.74c-6.2,3.1-11.87,5.9-17.5,8.77-3,1.52-5.29,1.12-6.75-1.32s-.85-4.64,2.05-6.61c8.13-5.53,17.22-9,26.6-11.55,8.44-2.34,17-4.14,25.52-6.3,5.17-1.32,10.25-2.91,14.4-6.55A16.92,16.92,0,0,0,138.52,122a16.58,16.58,0,0,0-2-.15c-19.52.74-39,1.59-58.57,2.23-11,.36-21.34,3.58-31.54,7.37l-37.58,14a16.92,16.92,0,0,1-3.58,1.07,4.21,4.21,0,0,1-4.89-3,4.17,4.17,0,0,1,1.92-5.4,12.73,12.73,0,0,1,2-.92c17.07-6.21,34.12-12.46,51.22-18.6,9.47-3.4,19.48-3.47,29.35-4.36,1.12-.11,2.26-.17,3.84-.28v-3.73q0-23.65,0-47.3c0-5.62,1.42-7,7-7H293.15c5.64,0,6.85,1.19,6.85,6.75V182.23c0,5.58-1.17,6.76-6.85,6.76-29.36,0-58.73,0-88.09.07a12.39,12.39,0,0,0-5.9,1.49C183,200,167.05,209.7,150.89,219.08,139,226,126.87,232.39,113.28,235c-6.06,1.17-12.45,1.14-18.66.94-17.62-.54-34.67-5-51.93-8-12.44-2.18-24.94-4-37.41-5.92-3.92-.61-5.67-2.44-5.19-5.6.43-2.81,2.75-4.18,6.55-3.54,20.67,3.48,41.32,7.2,62,10.49,9.78,1.55,19.67,2.42,29.53,3.44,10.32,1.07,19.85-2,29.09-6.11,18.74-8.41,35.84-19.72,53.26-30.46.25-.15.52-.27.58-1.07-1.18-.05-2.35-.15-3.53-.15H96.09c-6.23,0-7.45-1.26-7.45-7.56S88.63,168.93,88.63,161.74Zm9.44,17.88c.81.08,1.12.15,1.43.15q77.12,0,154.21-.05a5.62,5.62,0,0,0,3.45-1.58q15.93-15.73,31.67-31.68a7.21,7.21,0,0,0,1.86-4.59q.22-19.43,0-38.84a7.27,7.27,0,0,0-1.89-4.58Q273.22,82.58,257.33,67a6.74,6.74,0,0,0-4.28-1.8q-58.77-.15-117.54,0a6,6,0,0,0-3.8,1.51C120.94,77.33,110.27,88.08,99.6,98.83a4.17,4.17,0,0,0-1.45,2.27c-.15,4-.07,8.08-.07,12.39,1.35,0,2.37,0,3.39,0,13-.37,26.1-.77,39.16-1.12,4.07-.11,5.58.73,6.53,4.37,2.39,9.08,1.28,17.61-4.8,25.08-5.41,6.64-12.89,9.78-20.91,11.79-7,1.75-14,3.22-21,4.94-.89.22-2.25,1.21-2.27,1.87C98,166.75,98.07,173.1,98.07,179.62Zm.16-114.35v20l20.9-20ZM290.54,86.1V65.33H269.9Zm.07,73.88-19.67,19.61h19.67Z"/><path class="cls-2" d="M202.13,112.12c-9.95,0-19.45,0-28.95,0a19.34,19.34,0,0,1-3.73-.26c-2.63-.52-4-2.23-3.82-4.9a4.25,4.25,0,0,1,4.57-4.2c6.27-.08,12.54,0,18.81,0h13.92c-.8-4.78-3.07-8.34-6.94-10.44a21.54,21.54,0,0,0-8.55-2.49c-5.41-.39-10.86-.09-16.3-.13-3.51,0-5.52-1.72-5.55-4.57s2-4.71,5.41-4.71q27.12,0,54.24,0c3.36,0,5.53,1.92,5.51,4.69s-2.19,4.57-5.6,4.59c-5.81,0-11.62,0-17.31,0,1.83,4.42,3.57,8.6,5.42,13,3.76,0,7.83,0,11.9,0,3.38,0,5.59,1.89,5.59,4.59s-2.22,4.69-5.54,4.78c-4.27.11-8.55,0-13,0-4.1,14.38-15.41,17.74-29,18.45,1.21,1.09,1.93,1.79,2.69,2.42,10.43,8.69,20.92,17.31,31.22,26.15a7.13,7.13,0,0,1,2.07,5.08c-.06,1.18-1.89,2.86-3.22,3.23a5.8,5.8,0,0,1-4.5-1.13c-14.61-12-29.1-24.13-43.64-36.21-1.88-1.57-2.81-3.43-2-5.78s3-2.95,5.3-3c6.46-.25,12.95-.36,19.37-1C195.51,119.8,199.72,117.62,202.13,112.12Z"/></svg>