<svg id="Layer_1" data-name="Layer 1" xmlns="http://www.w3.org/2000/svg" viewBox="0 0 300 300"><defs><style>.cls-1{fill:#ebaa35;}.cls-2{fill:#114589;}</style></defs><g id="okDlk1"><path class="cls-1" d="M149.91,238.85q-67,0-134,0c-7.79,0-13.18-3.51-15-10a21.38,21.38,0,0,1-.63-5.71q0-73.45,0-146.91C.25,67,6,61.16,15.36,61.16q134.58,0,269.16,0c9.79,0,15.23,5.7,15.24,15.8q0,52.65,0,105.29,0,20.53,0,41.07c0,9.84-5.67,15.52-15.54,15.53Q217.06,238.87,149.91,238.85Zm.11-9.38H284c4.78,0,6.31-1.39,6.31-5.88q0-73.32,0-146.62c0-5-1.46-6.44-6.36-6.44H16c-4.94,0-6.32,1.4-6.32,6.44V222.48c0,5.75,1.25,7,6.92,7Z"/><path class="cls-1" d="M148.85,84.49c35.43-.37,65.78,27,66.61,64.3a65.48,65.48,0,1,1-130.93,2.29C83.83,115.55,111.65,85.64,148.85,84.49Zm-55,65.88c.28,30.93,25.84,56.11,56.59,55.76s55.91-25.65,55.73-56.36c-.18-30.9-25.67-56.14-56.46-55.9C118.75,94.11,93.55,119.6,93.84,150.37Z"/><path class="cls-2" d="M56.32,98.45A18.66,18.66,0,0,1,37.67,117.2C27.54,117.37,19,108.81,19,98.47a18.67,18.67,0,0,1,37.33,0Zm-9.39.25a9.27,9.27,0,1,0-9.61,9.11C42.83,107.84,46.86,104,46.93,98.7Z"/><path class="cls-2" d="M243.68,98.78A18.66,18.66,0,1,1,281,98.46c.25,10.09-8.28,18.66-18.66,18.75A18.64,18.64,0,0,1,243.68,98.78Zm18.89-9.49a9.26,9.26,0,1,0,9,9.68C271.68,93.47,267.88,89.39,262.57,89.29Z"/><path class="cls-2" d="M37.74,220.1A18.66,18.66,0,0,1,19,201.44c-.15-10.13,8.43-18.66,18.77-18.65a18.66,18.66,0,0,1,0,37.31Zm-.29-9.39A9.26,9.26,0,1,0,28.4,201C28.32,206.54,32.13,210.61,37.45,210.71Z"/><path class="cls-2" d="M243.67,201.52a18.67,18.67,0,0,1,18.69-18.72c10.13-.15,18.66,8.44,18.64,18.76a18.67,18.67,0,0,1-37.33,0Zm9.4-.44a9.2,9.2,0,0,0,9.11,9.64,9.09,9.09,0,0,0,9.42-9,9.21,9.21,0,0,0-8.7-9.49C257.42,192,253.23,195.8,253.07,201.08Z"/><path class="cls-1" d="M70.35,136.15v9H23.85v-9Z"/><path class="cls-1" d="M229.68,154.81h46.43v9.11H229.68Z"/><path class="cls-1" d="M276.19,145.21H248.47v-9h27.72Z"/><path class="cls-1" d="M23.81,163.85v-9H51.57v9Z"/><path class="cls-2" d="M109.34,153.85H140.7c6.13,0,9.32-2.58,10.82-9H122v-9.36h29.11c-.3-5.14-4-8.76-8.89-8.86-5.7-.1-11.39,0-17.09,0H122v-9.19h56v9.18H158.49c.9,2.75,1.54,5.14,2.52,7.38a3.21,3.21,0,0,0,2.43,1.37c4.76.13,9.53.06,14.49.06v9.4c-4.81,0-9.57,0-14.33,0-1.44,0-2.35.24-2.72,1.93-2.52,11.79-10.39,17-22,16.64-.82,0-1.65,0-3.37,0l25.61,20.43c-1.9,2.39-3.79,4.78-5.8,7.33l-46.15-36.67Z"/></g></svg>