<svg id="Layer_1" data-name="Layer 1" xmlns="http://www.w3.org/2000/svg" viewBox="0 0 300 300"><defs><style>.cls-1{fill:#fff;}</style></defs><path class="cls-1" d="M234,234.69c-3.7,0-7.26,0-10.81,0-5.38-.07-7.84-2.57-7.84-8q0-44.16,0-88.33c0-5.68,2.53-8.21,8.2-8.24,3.65,0,7.3,0,11.15,0,.09-1,.23-1.81.23-2.6-.07-10.46.32-20.94-.32-31.36-1.68-27.41-14-48.93-36.94-64.13a77.26,77.26,0,0,0-52.08-12.59C116,22.56,94.09,37.62,80.36,64.13c-6,11.67-8.56,24.3-8.59,37.42,0,9.35,0,18.69,0,28.37,1.13.07,2.09.16,3,.17,3.3,0,6.6-.09,9.89.08,4.09.2,6.62,2.84,6.62,6.92q.06,45.25,0,90.52c0,4.17-2.64,7-6.83,7-12.08.06-24.19.39-36.25-.24-17.56-.92-33.31-16-34.72-34.11a217,217,0,0,1,.4-38.15c1.66-16.68,18.31-31.07,35.05-31.85,3.09-.14,6.2,0,9.6,0,.07-1.32.15-2.29.15-3.25,0-9.17-.17-18.35.07-27.51.83-31.34,13.67-56.63,38.79-75.37,38.94-29,95.18-22.75,127,14.06,15.61,18.08,23.31,39.14,23.39,63,0,8.53,0,17.06,0,25.59v3.44c3.19,0,6.1-.11,9,0,19.21.84,35.77,17,36.45,36.29.42,12,.68,24.08-.63,36-1.89,17.18-18.25,31.24-35.48,32-3.19.15-6.38,0-9.67,0-.46,2-.8,3.69-1.24,5.35-3.73,14-12.47,24-24.62,31.38-13.19,7.94-27.76,11.12-42.9,12.08-2.46.15-3.77.76-4.82,3.27-4.18,10-15.68,15.35-26.42,12.69a22.81,22.81,0,0,1-17-23.12c.62-11.36,8.17-20,19.71-21.66,10-1.47,19.8,4,24.1,14,.36.83,1.57,1.91,2.33,1.87,11.77-.65,23.27-2.62,34-7.9,11.12-5.47,19.75-13.22,23-25.73.1-.36.19-.71.26-1.07A6.09,6.09,0,0,0,234,234.69ZM78.15,221.64V143.46a4.14,4.14,0,0,0-.92-.27c-8.78,0-17.58-.36-26.34.11-14.13.76-24.28,11.13-24.81,25.18-.34,9.24-.32,18.52,0,27.76.47,13.41,9.81,23.52,23.16,25,5.24.61,10.59.29,15.9.35C69.41,221.68,73.69,221.64,78.15,221.64Zm150.37-.26c9.79,0,19.43.65,28.94-.16,12.93-1.1,22.14-10.64,23-23.63a233.24,233.24,0,0,0,0-30.49c-.88-13-10-22.27-23-23.57-7.43-.75-15-.3-22.49-.38-2.08,0-4.16,0-6.4,0ZM153.25,286.9a9.73,9.73,0,1,0-9.68-9.82A9.63,9.63,0,0,0,153.25,286.9Z"/></svg>