<svg id="Layer_1" data-name="Layer 1" xmlns="http://www.w3.org/2000/svg" viewBox="0 0 300 300"><defs><style>.cls-1{fill:#114589;}.cls-2{fill:#ebaa35;}</style></defs><path class="cls-1" d="M218.61,178.27l9.11,7.6c-2.31,2.63-4.36,5.23-6.67,7.57-16.23,16.42-43.57,18.74-61.93,4.64-15.17-11.65-29.8-24-44.63-36.12Q73.07,128.18,31.72,94.34c-13.31-10.88-19.88-25-18.46-42.16C15.67,23,42.08,2.2,71.87,8.71A51.8,51.8,0,0,1,93.76,19.62q61.59,50.32,123.15,100.66c12.67,10.41,18.87,24,18.32,40.56,0,.38-.07.76-.14,1.6-3.88-3.18-7.47-6.09-11-9.07a2.67,2.67,0,0,1-.71-1.52c-1.5-9.54-6.45-16.94-13.83-23Q147.74,78.44,86,27.93c-16.6-13.57-39-12-53,4.18A36.63,36.63,0,0,0,30.9,76.7a41,41,0,0,0,7.55,8.23q62.56,51.3,125.28,102.4a37.32,37.32,0,0,0,51.33-4.24C216.32,181.66,217.34,180,218.61,178.27Z"/><path class="cls-2" d="M91.84,150.66c3.46,2.85,6.94,5.66,10.33,8.59a4,4,0,0,1,1,2.16c2,9.53,7.12,17,14.63,23.14q53.7,43.79,107.27,87.74c13.08,10.71,31.31,11.89,44.58,2.86,21.14-14.38,22.54-43.68,2.67-60.14-21.54-17.84-43.27-35.45-64.91-53.16-14.24-11.65-28.51-23.25-42.7-34.95-12.08-10-25.38-12.19-39.89-6.41a33.56,33.56,0,0,0-14.54,11.43c-.69.93-1.36,1.88-2.1,2.92l-8.87-7.51a44.88,44.88,0,0,1,15.75-14.87c18.29-10.35,38.78-8.82,55.29,4.45C190,132.7,209.47,148.76,229,164.72q25.14,20.52,50.28,41.06c15.54,12.67,22.15,33.18,16.65,51.84a48.17,48.17,0,0,1-47,34.87c-12-.06-22.35-4.49-31.52-12q-53.33-43.63-106.69-87.26c-9.28-7.56-16.07-16.63-18.43-28.52-.89-4.52-1-9.19-1.44-13.79Z"/></svg>