<svg id="Layer_1" data-name="Layer 1" xmlns="http://www.w3.org/2000/svg" viewBox="0 0 300 300"><defs><style>.cls-1{fill:#fff;}</style></defs><path class="cls-1" d="M213.15,178.27l9.11,7.6c-2.31,2.63-4.36,5.23-6.67,7.57-16.23,16.42-43.57,18.74-61.93,4.64-15.17-11.65-29.8-24-44.64-36.12q-41.4-33.78-82.76-67.62C13,83.46,6.38,69.29,7.8,52.18,10.21,23,36.62,2.2,66.4,8.71A51.78,51.78,0,0,1,88.3,19.62q61.58,50.32,123.15,100.66c12.67,10.41,18.87,24,18.32,40.56,0,.38-.07.76-.14,1.6-3.88-3.18-7.47-6.09-11-9.07a2.67,2.67,0,0,1-.71-1.52c-1.5-9.54-6.45-16.94-13.83-23Q142.28,78.44,80.53,27.93c-16.6-13.57-39-12-53,4.18A36.61,36.61,0,0,0,25.44,76.7,41,41,0,0,0,33,84.93q62.57,51.3,125.28,102.4a37.32,37.32,0,0,0,51.33-4.24C210.86,181.66,211.87,180,213.15,178.27Z"/><path class="cls-1" d="M86.38,150.66c3.45,2.85,6.94,5.66,10.33,8.59a4.1,4.1,0,0,1,1,2.16c2,9.53,7.12,17,14.63,23.14q53.7,43.79,107.27,87.74c13.08,10.71,31.31,11.89,44.57,2.86,21.15-14.38,22.55-43.68,2.68-60.14-21.54-17.84-43.27-35.45-64.91-53.16-14.24-11.65-28.51-23.25-42.7-34.95-12.08-10-25.39-12.19-39.89-6.41a33.56,33.56,0,0,0-14.54,11.43c-.69.93-1.36,1.88-2.11,2.92l-8.86-7.51a44.79,44.79,0,0,1,15.75-14.87c18.28-10.35,38.77-8.82,55.29,4.45,19.66,15.79,39.1,31.85,58.64,47.81q25.14,20.52,50.28,41.06C289.36,218.45,296,239,290.47,257.62a48.17,48.17,0,0,1-47,34.87c-12-.06-22.35-4.49-31.52-12q-53.34-43.63-106.69-87.26C96,185.67,89.18,176.6,86.82,164.71c-.89-4.52-1-9.19-1.45-13.79Z"/></svg>