<svg id="Layer_1" data-name="Layer 1" xmlns="http://www.w3.org/2000/svg" viewBox="0 0 300 300"><defs><style>.cls-1{fill:#114589;}.cls-2{fill:#ebaa35;}</style></defs><g id="nle87t"><path class="cls-1" d="M231.24,141.3c4.82,4.83,11.49,8,11.7,16.13.2,7.85-6.09,11.89-9.8,17.79,1.57,1.33,3.17,2.67,4.75,4,6.27,5.33,7.16,13.44,2.09,19.93-2.16,2.77-4.51,5.39-6.92,8.25,3.44,3.4,5.9,7.21,5.58,12.23,0,.2,0,.41,0,.61-.37,6.47-5.31,10.13-8.92,14.63-4,5-9.08,7.13-15,5.77-5,8.49-9.67,16.91-14.77,25.08-4.1,6.56-9.4,12.13-16.37,15.73-2.65,1.37-5.72,1.89-8.41,3.19a10,10,0,0,0-4.33,3.6c-1.61,2.87-2.47,6.15-3.89,9.14a3.17,3.17,0,0,1-2.55,1.51q-42.57-9.95-85.1-20.09c-.09,0-.16-.12-.55-.45L84,264.5c1.82-4.83,1.7-5.56-2.06-8.92C73.53,248.1,66.69,239.49,62.42,229A55.24,55.24,0,0,1,59,201.14c1.56-12.88,3.66-25.7,5.69-38.51,2.83-17.86,1.66-35.54-2.25-53.08a95.87,95.87,0,0,0-4-14.19C52.44,80.32,64,71,74.69,69.85c7.06-.78,11.11.76,19.46,7.16V73.57q0-29.47,0-59C94.16,5.78,99.81,0,108.68,0Q159.6,0,210.52,0c9,0,14.71,5.8,14.71,14.79q0,42.63,0,85.26c0,2.23.9,2.92,2.68,4.16,4.63,3.24,9.32,6.76,12.88,11.08,3.81,4.63,2.72,11.58-1.34,16.5C236.8,135,234.05,138.05,231.24,141.3ZM102.93,32.47V198.38h93.81c.17-7.61,6.32-11.52,10.33-17.47-1.43-1.22-2.94-2.4-4.33-3.7-7-6.54-7.45-13.9-1.26-21.31l7.2-8.64c-2.21-1.91-4.18-3.62-6.16-5.3-6.79-5.77-7.54-14-1.8-20.82,3.88-4.64,7.87-9.18,11.83-13.73a6.11,6.11,0,0,1,2-1.78c2-.84,2.33-2.32,2.32-4.31-.06-22,0-43.94,0-65.91,0-1-.09-1.92-.14-2.94ZM204.3,239.83H109.66c-10.5,0-15.81-5.3-15.81-15.75q0-62.58,0-125.14c0-9.2-4.47-15.76-12.8-19.43-4.69-2.07-9.1-.67-12.86,2.59-3.08,2.66-3,6-2,9.68,2.29,8.1,4.9,16.17,6.44,24.43a137.41,137.41,0,0,1,1.08,45.69c-1.87,12.44-4.13,24.81-5.79,37.27-1.81,13.64.26,26.62,8.94,37.76a154.2,154.2,0,0,0,12.43,13.53c4.39,4.43,5.41,9.46,3.52,15.23-.71,2.17-1.59,4.29-2.51,6.75l70.67,17a8.07,8.07,0,0,0,.46-.83c.22-.56.45-1.12.62-1.69,1.8-6.07,5.67-9.55,12-10.95a23.18,23.18,0,0,0,9-4.52C193.28,263.3,198.43,251.63,204.3,239.83ZM102.73,207.77v15.85c0,6.43,1.38,7.82,7.78,7.82H203.1c-2.77-6.92-.81-12.43,3.73-17.34-2-1.46-4-2.45-5.28-4-1.7-2.06-3.61-2.36-6-2.35q-44.41.09-88.81,0Zm.1-184.69H216.55c0-2.33,0-4.44,0-6.55,0-6.5-1.34-7.83-7.74-7.83H110.67c-.9,0-1.81,0-2.72.05-2.92.19-4.8,1.82-5.06,4.64C102.6,16.56,102.83,19.77,102.83,23.08Zm119.08,88.54c-1.35.88-2.88,1.49-3.87,2.58-3.87,4.24-7.61,8.58-11.29,13-2.15,2.56-2,5.27.29,7.55A58.65,58.65,0,0,0,213.2,140c2.89,2.13,6,1.8,8.37-.88,3.75-4.19,7.45-8.45,11-12.78,2.3-2.77,1.9-6.21-.84-8.58a54.84,54.84,0,0,0-5.44-4.29A27.28,27.28,0,0,0,221.91,111.62ZM217,177.39c1.52-1,3.38-1.83,4.69-3.19,2.87-3,5.44-6.2,8.17-9.3,6-6.84,5.8-8.11-1-14.1-2.47-2.18-4.56-3.19-7.61-1.3-1.55.95-3.9.88-5.08,2.07a139.58,139.58,0,0,0-9.26,10.74c-2.31,2.88-2,5.9.64,8.35,1.93,1.76,3.93,3.45,6,5.05A20.62,20.62,0,0,0,217,177.39Zm9.81,4.24c-2.72,3.42-6.39,4-10.32,4.13A4,4,0,0,0,214,187c-2.42,2.68-4.75,5.46-7,8.29-2.07,2.58-1.93,5.3.43,7.56a66.24,66.24,0,0,0,6.2,5.26c2.82,2.12,5.6,1.78,8-.95q5.63-6.48,11.08-13.14c2-2.48,1.82-5.22-.5-7.54C230.5,184.81,228.72,183.34,226.82,181.63Zm.69,33.21c-3.33,1-6.3,2.17-9.38,2.62-3.26.48-6,2.12-7.15,5.23s.27,6.29,3.67,8.39c2.45,1.51,5,1.1,7.31-1.32,2.07-2.19,4-4.47,6-6.77C230.54,220,230.23,217.24,227.51,214.84Z"/><path class="cls-2" d="M183,96.56H136.16V89.73H183Z"/><path class="cls-2" d="M136.12,110.81V104H183v6.77Z"/><path class="cls-2" d="M136.11,125.13v-6.71h47v6.71Z"/><path class="cls-2" d="M159.5,209.9a7.15,7.15,0,1,1-.44,14.29,7.15,7.15,0,0,1,.44-14.29Z"/><path class="cls-2" d="M173.83,13.35v5.42H145.54V13.35Z"/></g></svg>