<svg id="Layer_1" data-name="Layer 1" xmlns="http://www.w3.org/2000/svg" viewBox="0 0 300 300"><defs><style>.cls-1{fill:#ebaa35;}.cls-2{fill:#114589;}</style></defs><path class="cls-1" d="M235.19,234.69c-3.7,0-7.25,0-10.81,0-5.37-.07-7.83-2.57-7.83-8q0-44.16,0-88.33c0-5.68,2.53-8.21,8.2-8.24,3.64,0,7.29,0,11.15,0,.09-1,.23-1.81.22-2.6-.06-10.46.32-20.94-.32-31.36-1.67-27.41-14-48.93-36.94-64.13a77.23,77.23,0,0,0-52.07-12.59c-29.56,3.14-51.48,18.2-65.22,44.71C75.52,75.8,73,88.43,73,101.55c0,9.35,0,18.69,0,28.37,1.14.07,2.1.16,3.06.17,3.3,0,6.6-.09,9.89.08,4.09.2,6.62,2.84,6.62,6.92q0,45.25,0,90.52c0,4.17-2.64,7-6.83,7-12.09.06-24.2.39-36.25-.24-17.56-.92-33.32-16-34.73-34.11a217,217,0,0,1,.41-38.15c1.65-16.68,18.31-31.07,35-31.85,3.1-.14,6.21,0,9.61,0,.06-1.32.15-2.29.15-3.25,0-9.17-.17-18.35.07-27.51.83-31.34,13.67-56.63,38.79-75.37,38.93-29,95.18-22.75,127,14.06,15.61,18.08,23.3,39.14,23.38,63,0,8.53,0,17.06,0,25.59v3.44c3.19,0,6.1-.11,9,0,19.2.84,35.76,17,36.44,36.29.43,12,.68,24.08-.62,36-1.89,17.18-18.25,31.24-35.49,32-3.18.15-6.38,0-9.66,0-.47,2-.8,3.69-1.24,5.35-3.74,14-12.47,24-24.63,31.38-13.18,7.94-27.75,11.12-42.9,12.08-2.45.15-3.77.76-4.82,3.27-4.17,10-15.68,15.35-26.42,12.69a22.84,22.84,0,0,1-17-23.12c.62-11.36,8.18-20,19.71-21.66,10-1.47,19.8,4,24.1,14,.36.83,1.57,1.91,2.33,1.87,11.77-.65,23.28-2.62,34-7.9,11.11-5.47,19.74-13.22,23-25.73.09-.36.19-.71.25-1.07A6.09,6.09,0,0,0,235.19,234.69ZM79.36,221.64V143.46a4.08,4.08,0,0,0-.91-.27c-8.79,0-17.59-.36-26.35.11-14.12.76-24.28,11.13-24.8,25.18-.35,9.24-.33,18.52,0,27.76.46,13.41,9.8,23.52,23.15,25,5.25.61,10.6.29,15.9.35C70.62,221.68,74.9,221.64,79.36,221.64Zm150.37-.26c9.8,0,19.43.65,29-.16,12.93-1.1,22.13-10.64,23-23.63a231.5,231.5,0,0,0,0-30.49c-.88-13-10-22.27-23-23.57-7.43-.75-15-.3-22.48-.38-2.08,0-4.17,0-6.41,0ZM154.47,286.9a9.73,9.73,0,1,0-9.68-9.82A9.62,9.62,0,0,0,154.47,286.9Z"/><circle class="cls-2" cx="154.61" cy="277.15" r="9.71"/></svg>