<svg id="Layer_1" data-name="Layer 1" xmlns="http://www.w3.org/2000/svg" viewBox="0 0 300 300"><defs><style>.cls-1{fill:#fff;}</style></defs><g id="V7Aoct"><path class="cls-1" d="M24.87,130.89c-2,0-3.54.12-5.1,0a4.42,4.42,0,0,1-3.86-6.12A20.05,20.05,0,0,1,17,122.48Q34.21,87.94,51.41,53.35a11.14,11.14,0,0,0,1.12-4.72c.12-7.57,0-15.14.06-22.71,0-4.54,1.6-6.12,6.18-6.12q91.21,0,182.43,0c4.52,0,6.08,1.61,6.09,6.22,0,7.65,0,15.3,0,23a9.72,9.72,0,0,0,1,4Q266,88.44,283.74,123.85c1.71,3.42,0,6.64-3.85,7-1.47.15-3,0-4.89,0V281a22.42,22.42,0,0,1-.17,3.48,4.31,4.31,0,0,1-4.34,4c-.82,0-1.66,0-2.49,0H31.92c-.84,0-1.67,0-2.5,0a4.32,4.32,0,0,1-4.36-4,22.42,22.42,0,0,1-.18-3.48q0-73.12,0-146.25ZM272,121.58c-.27-.63-.43-1.08-.65-1.51Q256,89.29,240.69,58.5c-.74-1.48-1.7-1.69-3.14-1.69q-87.6,0-175.2,0A3.2,3.2,0,0,0,59,58.94Q44.09,89.09,29.05,119.17c-.36.72-.66,1.46-1.09,2.41Zm-6.38,46.68H145.53V242H265.66ZM43.34,279.07V156.43c0-5.47,1.36-6.83,6.73-6.83H120c.83,0,1.67,0,2.49.06a4.21,4.21,0,0,1,4.06,3.73,18.24,18.24,0,0,1,.22,3.47q0,59.41,0,118.82v3.38h9.15V131.16H34.27V279.07ZM62.14,47.39H237.71V29.28H62.14ZM80.31,279.08V158.9H52.73V279.08Zm37,0V158.9H89.77V279.08ZM265.62,251.7H145.51v27.38H265.62ZM145.49,158.55H265.61v-27.4H145.49Z"/><path class="cls-1" d="M214.36,224.26c-1.34-1.19-2.9-2.07-3.69-3.41-1-1.76-.54-3.72,1-5.23,2.68-2.72,5.39-5.4,8.09-8.09,3.29-3.28,6.57-6.58,9.89-9.83,2.19-2.15,5-2.35,6.87-.57s2,4.86-.24,7.1q-8.93,9-18,17.89C217.35,223,216,223.37,214.36,224.26Z"/><path class="cls-1" d="M210.73,190.83c-.89,1.62-1.3,3-2.16,3.84q-9,9.18-18.09,18.19c-2.09,2.06-4.81,2.1-6.67.28s-2-4.72.16-6.86q9-9.12,18.15-18.12c1.48-1.47,3.37-2.17,5.19-1C208.63,188,209.53,189.51,210.73,190.83Z"/><path class="cls-1" d="M71.13,209.79c0,2.91.05,5.82,0,8.72-.06,3.15-1.8,5.07-4.51,5.11S62,221.73,62,218.55q-.1-8.72,0-17.43c0-3.24,1.81-5.13,4.56-5.15s4.53,1.94,4.6,5.11C71.18,204,71.13,206.89,71.13,209.79Z"/><path class="cls-1" d="M99,209.59c0-2.82,0-5.64,0-8.46.06-3.14,1.84-5.11,4.55-5.16s4.59,1.86,4.65,5.06q.14,8.7,0,17.42c0,3.24-1.83,5.12-4.56,5.17s-4.59-2-4.64-5.32C99,215.4,99,212.49,99,209.59Z"/><path class="cls-1" d="M163.86,265.35c0,1.49.09,3,0,4.47-.21,2.8-2,4.67-4.48,4.76a4.65,4.65,0,0,1-4.78-4.7,80.61,80.61,0,0,1,0-8.93,4.76,4.76,0,0,1,4.71-4.82c2.5.07,4.39,2.1,4.56,5,.09,1.4,0,2.82,0,4.22Z"/><path class="cls-1" d="M182.38,265.29c0,1.41.05,2.82,0,4.22-.12,3-1.83,4.92-4.41,5.06a4.57,4.57,0,0,1-4.81-4.63,74,74,0,0,1,0-9.18,4.67,4.67,0,0,1,4.61-4.63c2.5,0,4.45,2.07,4.61,4.94C182.44,262.47,182.38,263.88,182.38,265.29Z"/><path class="cls-1" d="M219.39,265.45c0,1.5.07,3,0,4.49a4.57,4.57,0,0,1-4.57,4.63,4.42,4.42,0,0,1-4.51-4.4,95.49,95.49,0,0,1,0-9.72,4.52,4.52,0,0,1,4.39-4.32,4.61,4.61,0,0,1,4.64,4.34c.15,1.65,0,3.32,0,5Z"/><path class="cls-1" d="M228.75,265.41c0-1.5-.07-3,0-4.49.16-2.81,2-4.72,4.49-4.79a4.55,4.55,0,0,1,4.63,4.61c.13,3.07.13,6.16,0,9.23a4.48,4.48,0,0,1-4.58,4.6c-2.53,0-4.37-1.88-4.53-4.67C228.68,268.4,228.75,266.9,228.75,265.41Z"/><path class="cls-1" d="M200.86,265.37c0,1.58.11,3.17,0,4.74a4.57,4.57,0,0,1-4.49,4.46,4.36,4.36,0,0,1-4.58-4.32,80.82,80.82,0,0,1,0-9.72,4.47,4.47,0,0,1,4.57-4.4,4.75,4.75,0,0,1,4.53,4.75c.09,1.5,0,3,0,4.49Z"/><path class="cls-1" d="M256.41,265.32a45.93,45.93,0,0,1,0,5,4.43,4.43,0,0,1-4.64,4.27,4.51,4.51,0,0,1-4.43-4.51c-.14-3.16-.15-6.33,0-9.48a4.67,4.67,0,0,1,4.55-4.45,4.51,4.51,0,0,1,4.49,4.21,43.52,43.52,0,0,1,0,5Z"/><path class="cls-1" d="M163.87,144.85c0,1.49.08,3,0,4.47-.2,2.84-2.24,4.89-4.7,4.85a4.79,4.79,0,0,1-4.57-4.72,78.1,78.1,0,0,1,0-9.18,4.66,4.66,0,0,1,4.65-4.58,4.77,4.77,0,0,1,4.57,4.69c.13,1.48,0,3,0,4.47Z"/><path class="cls-1" d="M182.38,145.06c0,1.41.07,2.82,0,4.22a4.82,4.82,0,0,1-4.4,4.87,4.53,4.53,0,0,1-4.77-4.42,66.41,66.41,0,0,1,0-9.67,4.49,4.49,0,0,1,4.8-4.35c2.47.19,4.21,2.09,4.36,4.88C182.45,142.08,182.38,143.57,182.38,145.06Z"/><path class="cls-1" d="M219.4,144.84c0,1.49.06,3,0,4.46-.15,2.93-2,4.89-4.62,4.85a4.54,4.54,0,0,1-4.5-4.69c-.12-3.05-.13-6.12,0-9.18a4.48,4.48,0,0,1,4.58-4.58,4.61,4.61,0,0,1,4.52,4.67c.09,1.48,0,3,0,4.47Z"/><path class="cls-1" d="M228.76,145c0-1.57-.08-3.15,0-4.72a4.58,4.58,0,0,1,4.6-4.57,4.47,4.47,0,0,1,4.48,4.43c.15,3.22.15,6.46,0,9.67a4.47,4.47,0,0,1-4.55,4.35,4.59,4.59,0,0,1-4.5-4.44c-.12-1.57,0-3.15,0-4.72Z"/><path class="cls-1" d="M200.88,144.86c0,1.49.07,3,0,4.46-.15,2.79-1.93,4.69-4.41,4.83a4.5,4.5,0,0,1-4.71-4.46,82.41,82.41,0,0,1,0-9.43,4.48,4.48,0,0,1,4.61-4.56,4.65,4.65,0,0,1,4.52,4.69C201,141.87,200.88,143.37,200.88,144.86Z"/><path class="cls-1" d="M256.44,145c0,1.58.12,3.16,0,4.72a4.58,4.58,0,0,1-4.48,4.47,4.66,4.66,0,0,1-4.63-4.59c-.13-3.14-.14-6.29,0-9.43a4.53,4.53,0,0,1,4.48-4.44,4.48,4.48,0,0,1,4.58,4.32,45.37,45.37,0,0,1,0,4.95Z"/></g></svg>