<svg id="Layer_1" data-name="Layer 1" xmlns="http://www.w3.org/2000/svg" viewBox="0 0 300 300"><defs><style>.cls-1{fill:#ebaa35;}.cls-2{fill:#114589;}</style></defs><g id="V7Aoct"><path class="cls-1" d="M26.06,130.89c-2,0-3.54.12-5.09,0a4.42,4.42,0,0,1-3.87-6.12,20.05,20.05,0,0,1,1-2.26Q35.4,87.94,52.61,53.35a11.44,11.44,0,0,0,1.12-4.72c.11-7.57,0-15.14.05-22.71,0-4.54,1.6-6.12,6.18-6.12q91.21,0,182.43,0c4.52,0,6.08,1.61,6.09,6.22,0,7.65,0,15.3.05,23a9.42,9.42,0,0,0,1,4q17.65,35.46,35.44,70.87c1.71,3.42,0,6.64-3.84,7-1.48.15-3,0-4.89,0v3.63q0,73.25,0,146.5a21.25,21.25,0,0,1-.17,3.48,4.31,4.31,0,0,1-4.33,4c-.83,0-1.67,0-2.5,0H33.11c-.83,0-1.67,0-2.5,0a4.32,4.32,0,0,1-4.36-4,22.42,22.42,0,0,1-.18-3.48q0-73.12,0-146.25Zm247.18-9.31c-.27-.63-.44-1.08-.65-1.51Q257.21,89.29,241.88,58.5c-.74-1.48-1.69-1.69-3.14-1.69q-87.6,0-175.19,0a3.21,3.21,0,0,0-3.36,2.15Q45.28,89.09,30.24,119.17c-.35.72-.66,1.46-1.08,2.41Zm-6.39,46.68H146.72V242H266.85ZM44.53,279.07V275.5q0-59.53,0-119.07c0-5.47,1.35-6.83,6.72-6.83h69.89c.83,0,1.67,0,2.5.06a4.2,4.2,0,0,1,4,3.73,18.24,18.24,0,0,1,.22,3.47q0,59.41,0,118.82v3.38h9.15V131.16H35.46V279.07ZM63.33,47.39H238.9V29.28H63.33ZM81.51,279.08V158.9H53.92V279.08Zm37,0V158.9H91V279.08ZM266.81,251.7H146.7v27.38H266.81ZM146.68,158.55H266.81v-27.4H146.68Z"/><path class="cls-2" d="M215.55,224.26c-1.34-1.19-2.9-2.07-3.69-3.41-1-1.76-.53-3.72,1-5.23,2.68-2.72,5.39-5.4,8.1-8.09,3.29-3.28,6.56-6.58,9.88-9.83,2.19-2.15,5-2.35,6.87-.57s2,4.86-.24,7.1q-8.93,9-18,17.89C218.55,223,217.21,223.37,215.55,224.26Z"/><path class="cls-2" d="M211.92,190.83c-.89,1.62-1.3,3-2.16,3.84q-9,9.18-18.09,18.19c-2.08,2.06-4.81,2.1-6.67.28s-2-4.72.16-6.86q9-9.12,18.15-18.12c1.49-1.47,3.38-2.17,5.19-1C209.83,188,210.73,189.51,211.92,190.83Z"/><path class="cls-2" d="M72.33,209.79c0,2.91,0,5.82,0,8.72-.06,3.15-1.8,5.07-4.51,5.11s-4.6-1.89-4.64-5.07c-.08-5.81-.07-11.62,0-17.43,0-3.24,1.81-5.13,4.56-5.15s4.54,1.94,4.6,5.11C72.37,204,72.33,206.89,72.33,209.79Z"/><path class="cls-2" d="M100.18,209.59c0-2.82,0-5.64,0-8.46.06-3.14,1.84-5.11,4.55-5.16s4.6,1.86,4.65,5.06q.14,8.7,0,17.42c0,3.24-1.83,5.12-4.55,5.17s-4.6-2-4.65-5.32C100.14,215.4,100.18,212.49,100.18,209.59Z"/><path class="cls-1" d="M165.05,265.35c0,1.49.09,3,0,4.47-.21,2.8-2,4.67-4.47,4.76a4.64,4.64,0,0,1-4.78-4.7,78.25,78.25,0,0,1,0-8.93,4.77,4.77,0,0,1,4.72-4.82c2.49.07,4.38,2.1,4.56,5,.08,1.4,0,2.82,0,4.22Z"/><path class="cls-1" d="M183.57,265.29c0,1.41.05,2.82,0,4.22-.12,3-1.83,4.92-4.41,5.06a4.58,4.58,0,0,1-4.81-4.63,76,76,0,0,1,0-9.18,4.67,4.67,0,0,1,4.62-4.63c2.5,0,4.44,2.07,4.6,4.94C183.63,262.47,183.57,263.88,183.57,265.29Z"/><path class="cls-1" d="M220.58,265.45c0,1.5.08,3,0,4.49a4.55,4.55,0,0,1-4.57,4.63,4.42,4.42,0,0,1-4.51-4.4c-.15-3.23-.15-6.49,0-9.72a4.5,4.5,0,0,1,4.38-4.32,4.62,4.62,0,0,1,4.65,4.34c.15,1.65,0,3.32,0,5Z"/><path class="cls-1" d="M229.94,265.41c0-1.5-.07-3,0-4.49.16-2.81,2-4.72,4.48-4.79a4.55,4.55,0,0,1,4.63,4.61c.14,3.07.13,6.16,0,9.23a4.47,4.47,0,0,1-4.58,4.6c-2.53,0-4.37-1.88-4.53-4.67C229.88,268.4,230,266.9,229.94,265.41Z"/><path class="cls-1" d="M202.06,265.37c0,1.58.1,3.17,0,4.74a4.56,4.56,0,0,1-4.49,4.46,4.36,4.36,0,0,1-4.58-4.32,78.81,78.81,0,0,1,0-9.72,4.46,4.46,0,0,1,4.56-4.4,4.77,4.77,0,0,1,4.54,4.75c.09,1.5,0,3,0,4.49Z"/><path class="cls-1" d="M257.6,265.32a45.93,45.93,0,0,1,0,5,4.43,4.43,0,0,1-4.64,4.27,4.51,4.51,0,0,1-4.43-4.51c-.14-3.16-.15-6.33,0-9.48a4.68,4.68,0,0,1,4.56-4.45,4.5,4.5,0,0,1,4.48,4.21,43.51,43.51,0,0,1,0,5Z"/><path class="cls-1" d="M165.06,144.85c0,1.49.09,3,0,4.47-.2,2.84-2.24,4.89-4.7,4.85a4.77,4.77,0,0,1-4.56-4.72,76,76,0,0,1,0-9.18,4.66,4.66,0,0,1,4.65-4.58,4.77,4.77,0,0,1,4.57,4.69c.13,1.48,0,3,0,4.47Z"/><path class="cls-1" d="M183.57,145.06c0,1.41.07,2.82,0,4.22a4.82,4.82,0,0,1-4.4,4.87,4.53,4.53,0,0,1-4.77-4.42,69.35,69.35,0,0,1,0-9.67,4.49,4.49,0,0,1,4.8-4.35c2.47.19,4.21,2.09,4.36,4.88C183.64,142.08,183.57,143.57,183.57,145.06Z"/><path class="cls-1" d="M220.59,144.84c0,1.49.06,3,0,4.46-.16,2.93-2.06,4.89-4.62,4.85a4.55,4.55,0,0,1-4.51-4.69c-.12-3.05-.13-6.12,0-9.18a4.48,4.48,0,0,1,4.59-4.58,4.61,4.61,0,0,1,4.52,4.67c.08,1.48,0,3,0,4.47Z"/><path class="cls-1" d="M230,145c0-1.57-.08-3.15,0-4.72a4.59,4.59,0,0,1,4.61-4.57,4.46,4.46,0,0,1,4.47,4.43,94.51,94.51,0,0,1,0,9.67,4.47,4.47,0,0,1-4.55,4.35,4.58,4.58,0,0,1-4.49-4.44c-.13-1.57,0-3.15,0-4.72Z"/><path class="cls-1" d="M202.07,144.86c0,1.49.07,3,0,4.46-.15,2.79-1.93,4.69-4.41,4.83a4.5,4.5,0,0,1-4.71-4.46,84.76,84.76,0,0,1,0-9.43,4.48,4.48,0,0,1,4.61-4.56,4.64,4.64,0,0,1,4.52,4.69C202.15,141.87,202.07,143.37,202.07,144.86Z"/><path class="cls-1" d="M257.63,145c0,1.58.12,3.16,0,4.72a4.58,4.58,0,0,1-4.48,4.47,4.64,4.64,0,0,1-4.62-4.59c-.14-3.14-.15-6.29,0-9.43a4.54,4.54,0,0,1,9.07-.12,48,48,0,0,1,0,4.95Z"/></g></svg>